<svg version="1.0" xmlns="http://www.w3.org/2000/svg"
 width="980.000000pt" height="588.000000pt" viewBox="0 0 980.000000 588.000000"
 preserveAspectRatio="xMidYMid meet">
<metadata>
Created by potrace 1.16, written by Peter Selinger 2001-2019
</metadata>
<g transform="translate(0.000000,588.000000) scale(0.100000,-0.100000)"
fill="#000000" stroke="none">
<path d="M2495 5870 c-126 -21 -237 -81 -346 -190 -65 -65 -94 -103 -122 -160
-46 -92 -53 -148 -62 -465 -3 -126 -8 -231 -11 -234 -3 -3 -19 1 -37 8 -120
48 -146 54 -252 58 -199 8 -342 -41 -473 -162 -118 -110 -180 -221 -202 -363
-6 -37 -14 -224 -19 -415 -5 -191 -11 -350 -14 -354 -4 -3 -107 -10 -229 -14
-123 -4 -245 -13 -273 -19 -188 -42 -386 -248 -440 -457 -19 -74 -19 -214 1
-311 25 -125 65 -193 174 -303 153 -154 214 -175 551 -187 115 -5 211 -11 215
-15 4 -3 10 -163 15 -354 9 -367 16 -449 49 -537 61 -161 237 -326 405 -379
58 -18 93 -22 210 -22 134 0 143 2 220 33 44 17 86 32 93 32 8 0 12 -16 12
-47 2 -209 21 -534 35 -580 34 -114 163 -265 290 -342 197 -119 476 -114 667
12 88 59 197 180 245 273 l42 80 10 870 c6 478 11 890 11 917 l0 47 1640 0
1640 0 0 -72 c1 -377 23 -1631 30 -1702 7 -74 16 -105 47 -166 71 -140 216
-260 383 -317 79 -27 246 -31 353 -8 197 42 400 233 453 429 16 58 33 309 34
495 0 95 3 122 13 118 159 -70 165 -72 312 -72 170 0 243 19 356 93 167 110
273 275 293 457 4 33 11 212 15 398 5 186 11 341 15 344 4 4 100 10 215 15
336 12 409 37 556 190 140 145 192 282 182 488 -8 178 -60 291 -193 423 -139
138 -220 164 -547 176 -114 5 -210 11 -214 14 -3 4 -9 163 -14 354 -5 191 -13
379 -19 417 -21 138 -86 253 -202 361 -131 121 -273 170 -471 163 -109 -4
-129 -9 -254 -59 -18 -7 -34 -11 -37 -9 -2 3 -9 131 -15 285 -11 322 -19 359
-95 474 -65 97 -161 181 -271 237 -80 40 -101 47 -182 53 -51 4 -131 5 -178 1
-77 -6 -97 -12 -192 -60 -88 -43 -120 -66 -183 -129 -100 -100 -146 -190 -160
-311 -7 -67 -29 -1314 -30 -1702 l0 -78 -1640 0 -1640 0 0 48 c0 26 -5 438
-11 917 l-10 870 -42 80 c-56 108 -202 256 -297 301 -115 56 -290 83 -405 64z
m248 -340 c57 -27 132 -106 159 -168 16 -36 23 -79 29 -192 10 -191 10 -4284
0 -4466 -10 -161 -24 -205 -92 -279 -24 -26 -66 -59 -94 -73 -68 -36 -195 -38
-267 -5 -63 29 -134 102 -165 170 -26 55 -26 59 -35 427 -13 525 -4 4149 11
4289 6 59 18 125 27 145 17 43 73 104 124 135 82 51 215 58 303 17z m4591 -4
c65 -32 120 -90 153 -163 24 -53 25 -63 34 -376 11 -418 11 -3676 0 -4094 -9
-314 -10 -323 -34 -377 -31 -67 -102 -140 -165 -169 -72 -33 -199 -31 -267 5
-62 32 -130 104 -157 166 -16 36 -23 81 -30 216 -6 101 -8 1070 -6 2372 l3
2201 35 69 c81 158 278 226 434 150z m-5640 -961 c62 -10 129 -49 179 -105 87
-97 81 -3 85 -1235 3 -1187 -5 -1665 -31 -1727 -25 -60 -100 -132 -170 -164
-91 -41 -180 -40 -268 3 -35 18 -83 51 -106 75 -63 65 -73 113 -83 423 -11
315 -11 1522 -1 2100 7 406 8 421 30 463 30 58 93 120 148 144 49 21 125 37
158 32 11 -1 38 -6 59 -9z m6620 -19 c31 -15 74 -49 99 -76 82 -92 79 -67 89
-590 12 -564 3 -2159 -12 -2279 -13 -105 -35 -156 -90 -205 -133 -120 -316
-122 -444 -5 -92 84 -98 103 -107 378 -10 301 -10 2343 0 2477 8 113 28 163
89 227 103 107 248 135 376 73z m-7349 -1606 l0 -335 -155 2 c-178 3 -270 19
-347 63 -171 98 -198 354 -53 500 83 83 193 109 440 106 l115 -1 0 -335z
m8167 331 c116 -11 192 -41 256 -104 54 -52 79 -99 90 -171 24 -154 -49 -286
-196 -354 -45 -20 -80 -26 -188 -34 -73 -5 -162 -8 -196 -6 l-63 3 -3 325 c-1
179 0 330 3 337 5 15 148 17 297 4z m-2592 -331 l0 -330 -1638 0 -1639 0 -6
188 c-9 232 -9 376 -1 424 6 36 7 37 58 41 28 2 765 4 1639 5 l1587 2 0 -330z"/>
</g>
</svg>