<svg version="1.0" xmlns="http://www.w3.org/2000/svg"
 width="400.000000pt" height="400.000000pt" viewBox="0 0 400.000000 400.000000"
 preserveAspectRatio="xMidYMid meet">
<metadata>
Created by potrace 1.16, written by Peter Selinger 2001-2019
</metadata>
<g transform="translate(0.000000,400.000000) scale(0.100000,-0.100000)"
fill="#000000" stroke="none">
<path d="M1955 3433 c-50 -6 -82 -22 -285 -139 -583 -335 -819 -476 -852 -508
-45 -45 -75 -105 -88 -178 -16 -84 -8 -1201 8 -1250 19 -55 72 -129 117 -161
41 -30 893 -525 996 -579 66 -35 155 -46 226 -29 28 8 205 104 438 239 214
124 444 257 510 295 136 78 177 113 210 177 44 86 46 130 43 745 -3 580 -3
580 -26 637 -34 83 -88 131 -268 235 -88 50 -312 180 -499 288 -187 109 -353
203 -370 210 -35 14 -117 24 -160 18z m155 -279 c71 -29 813 -464 848 -497 18
-17 45 -57 60 -87 l27 -55 0 -515 0 -515 -29 -52 c-15 -28 -42 -65 -60 -82
-35 -34 -789 -475 -851 -498 -51 -19 -159 -19 -210 0 -64 24 -817 465 -853
500 -18 17 -45 57 -60 87 l-27 55 -3 489 c-3 538 -2 552 58 634 16 23 60 62
98 86 99 64 729 428 777 448 53 22 171 23 225 2z"/>
<path d="M1454 2591 c-17 -10 -36 -32 -43 -48 -8 -21 -11 -164 -9 -557 l3
-528 33 -29 c38 -34 93 -39 131 -13 48 34 51 60 51 411 l1 328 22 -26 c12 -14
78 -103 147 -197 69 -94 135 -175 148 -181 39 -18 88 -13 119 13 15 13 91 105
168 205 77 99 143 180 148 181 4 0 7 -147 7 -327 0 -292 2 -332 18 -363 36
-73 140 -76 183 -6 18 29 19 60 19 560 l0 528 -34 34 c-28 28 -42 34 -76 34
-36 0 -48 -6 -79 -38 -31 -32 -341 -426 -397 -504 -10 -15 -22 -28 -26 -28 -3
0 -97 123 -208 274 -158 216 -207 277 -232 285 -43 15 -58 14 -94 -8z"/>
</g>
</svg>